<svg id="paint-roller_copy_2" data-name="paint-roller copy 2" xmlns="http://www.w3.org/2000/svg" xmlns:xlink="http://www.w3.org/1999/xlink" width="60" height="60" viewBox="0 0 60 60">
  <defs>
    <clipPath id="clip-path">
      <rect id="Mask" width="60" height="60" fill="rgba(247,247,247,0.01)"/>
    </clipPath>
  </defs>
  <rect id="Mask-2" data-name="Mask" width="60" height="60" fill="rgba(247,247,247,0.01)"/>
  <g id="paint-roller_copy_2-2" data-name="paint-roller copy 2" clip-path="url(#clip-path)">
    <g id="pantone" transform="translate(0 1)">
      <path id="Shape" d="M3.573,7.188A3.594,3.594,0,1,1,7.146,3.595,3.587,3.587,0,0,1,3.573,7.188Zm0-5.413A1.818,1.818,0,1,0,5.381,3.594,1.815,1.815,0,0,0,3.573,1.776Z" transform="translate(47.712 44.471)" fill="#17a9f3"/>
      <path id="Shape-2" data-name="Shape" d="M35.436,11.942H1.354A1.359,1.359,0,0,1,0,10.581V1.362A1.359,1.359,0,0,1,1.354,0H35.5A1.33,1.33,0,0,1,36.82,1.333V10.55A1.39,1.39,0,0,1,35.436,11.942ZM25.14,1.776v8.392h9.915V1.776Zm-11.695,0v8.392h9.916V1.776Zm-11.68,0v8.392H11.68V1.776Z" transform="translate(4.387 42.255)" fill="#17a9f3"/>
      <path id="Shape-3" data-name="Shape" d="M26.585,57.95H2.228A2.237,2.237,0,0,1,0,55.709V40.35a2.214,2.214,0,0,1,2.2-2.219h11.42L3.755,32.4a2.249,2.249,0,0,1-.815-3.061l1.1-1.921,4.73-8.243.883-1.538.792-1.381.126-.219a2.211,2.211,0,0,1,1.913-1.109,2.187,2.187,0,0,1,1.1.3l9.892,5.745-5.7-9.929a2.252,2.252,0,0,1,.815-3.062L31.818.3a2.172,2.172,0,0,1,1.1-.3A2.211,2.211,0,0,1,34.83,1.11c4.552,7.931,8.991,15.657,13.195,22.963l.743,1.293C59.675,44.328,59.675,44.328,59.913,45.478l0,.022.006.031.014.061c.012.056.023.112.038.173a.889.889,0,0,1-.657,1.067.858.858,0,0,1-.2.024.881.881,0,0,1-.859-.685,8.052,8.052,0,0,0-.787-2.064l-.178-.279-.03-.047c-.731-1.157-.977-1.547-3.464-3.117a8.077,8.077,0,0,0-3.41-.761H2.205a.442.442,0,0,0-.44.444V55.709a.464.464,0,0,0,.463.465H26.585a.888.888,0,0,1,0,1.776ZM31.864,5.437a1.358,1.358,0,0,1,1.174.681L49.992,35.659a1.574,1.574,0,0,1,.208.782c1.591.931,2.2,1.3,2.7,1.6.441.266.789.475,1.65.975-.534-.928-6.26-10.9-11.8-20.553L33.3,2a.439.439,0,0,0-.6-.163L19.477,9.515a.468.468,0,0,0-.17.636l7.227,12.593,3.5,2.033L22.756,12.089a1.368,1.368,0,0,1,.5-1.859L31.19,5.62A1.345,1.345,0,0,1,31.864,5.437ZM12.485,16.7a.445.445,0,0,0-.383.221l-.017.031-.123.213-.907,1.581-.873,1.521-.082.143-1.29,2.249-.2.348L6.3,27.04l-.033.059L5.107,29.111l-.486.847-.012.02-.142.247a.466.466,0,0,0,.169.635l12.517,7.27h4.333l-.01-.005-.03-.018-2-1.164-.006,0-3.3-1.914-.816-.474-4.039-2.345-.161-.095-.489-.283-.755-.439-.036-.021L9.211,31l-.03-.016-.438-.255-.184-.107a1.369,1.369,0,0,1-.5-1.86l4.583-7.984a1.35,1.35,0,0,1,1.849-.5c7.419,4.31,13.066,7.58,16.441,9.533l.013.007.727.421.009.005C44.4,37.61,44.4,37.61,44.5,38.02l0,.018,0,.014,0,.014a.667.667,0,0,0,.021.065H49.5L35.948,30.263,22.683,22.557l-6.423-3.73-.2-.113L12.7,16.761A.421.421,0,0,0,12.485,16.7ZM34.212,33.782l-2.5,4.349H41.7l-7.489-4.349ZM24.084,27.9c-.1.18-.306.535-.571.995l-.679,1.184L21.51,32.385l-.068.117-.494.86-.173.3,0,.008-.115.2-.184.32,0,.008-.319.556-.235.41,5.1,2.964h4.645l3.01-5.243ZM43.4,27.728l-4.121,2.394,1.427.823c2.5,1.44,4.855,2.8,6.792,3.924l-4.1-7.141Zm-29.434-5.7h0L9.8,29.292l8.588,4.987,4.171-7.268-8.587-4.987ZM37.556,17.54l-5.379,3.124-.105.061-1.74,1.011,2.759,4.809q2.352,1.361,4.406,2.547l5.016-2.913L37.556,17.54ZM31.715,7.365l-7.224,4.2L29.449,20.2,32.1,18.656l1.222-.709L35.477,16.7l1.2-.695Z" transform="translate(0 0.025)" fill="#17a9f3"/>
      <path id="Path" d="M29.5.024a.882.882,0,0,0-1.061.661,8.06,8.06,0,0,1-7.87,6.266H.882a.888.888,0,0,0,0,1.775H20.567a9.82,9.82,0,0,0,9.588-7.635A.888.888,0,0,0,29.5.024Z" transform="translate(29.821 49.249)" fill="#17a9f3"/>
    </g>
  </g>
</svg>
