<svg id="paint-roller_copy" data-name="paint-roller copy" xmlns="http://www.w3.org/2000/svg" xmlns:xlink="http://www.w3.org/1999/xlink" width="60" height="60" viewBox="0 0 60 60">
  <defs>
    <clipPath id="clip-path">
      <rect id="Mask" width="60" height="60" fill="rgba(247,247,247,0.01)"/>
    </clipPath>
  </defs>
  <rect id="Mask-2" data-name="Mask" width="60" height="60" fill="rgba(247,247,247,0.01)"/>
  <g id="paint-roller_copy-2" data-name="paint-roller copy" clip-path="url(#clip-path)">
    <g id="tools">
      <path id="Shape" d="M10.964,60a2.016,2.016,0,0,1-1.433-.593L.594,50.468a2.028,2.028,0,0,1,0-2.865L20.246,27.951,9.313,17.019a.913.913,0,0,1-.193-.292L7.475,12.89l-2.49-5.81A1.265,1.265,0,0,1,5.09,5.865a1.289,1.289,0,0,1,1.074-.59,1.267,1.267,0,0,1,.516.108l.239.1.015.006.473.2.021.009.527.226.031.013,1.148.492.2.085.055.023L13.62,8.357l.292.125,2.417,1.036a.955.955,0,0,1,.292.194L27.553,20.645,47.6.592a2.028,2.028,0,0,1,2.865,0l1.786,1.785a.88.88,0,0,1-.622,1.5.87.87,0,0,1-.621-.258L49.226,1.835a.267.267,0,0,0-.378,0L45.86,4.824l1.783,1.783A.879.879,0,1,1,46.4,7.85L44.617,6.067,41.438,9.245l1.784,1.784a.879.879,0,0,1-1.244,1.243l-1.783-1.783-3.178,3.178L38.8,15.449a.879.879,0,1,1-1.243,1.243l-1.783-1.783L32.6,18.087l1.783,1.784a.879.879,0,0,1-1.243,1.243l-1.784-1.783L28.8,21.888l6.763,6.762L55.8,8.408,53.913,6.521a.879.879,0,0,1,1.243-1.243L59.407,9.53a2.026,2.026,0,0,1,0,2.865L39.355,32.447,43.5,36.59l.309.309L56.418,49.51a2.657,2.657,0,0,1,0,3.752l-3.555,3.555a2.658,2.658,0,0,1-3.752,0L32.048,39.754,12.4,59.406A2.016,2.016,0,0,1,10.964,60Zm18.53-22.8h0L9.653,57.041l1.121,1.121a.263.263,0,0,0,.148.076.163.163,0,0,0,.042,0,.262.262,0,0,0,.189-.078L30.805,38.511,29.494,37.2ZM52,47.576h0L47.177,52.4l3.177,3.177a.9.9,0,0,0,1.266,0l3.554-3.555a.9.9,0,0,0,0-1.266L52,47.576ZM4.826,45.858h0L1.837,48.847a.268.268,0,0,0,0,.379L8.409,55.8,28.251,35.957l-6.763-6.763-2.156,2.157,1.783,1.783a.879.879,0,0,1-1.243,1.243l-1.783-1.783-3.178,3.178,1.783,1.783a.881.881,0,0,1,0,1.243.879.879,0,0,1-1.243,0l-1.783-1.783L10.49,40.194l1.784,1.783A.879.879,0,0,1,11.03,43.22L9.247,41.437,6.069,44.615,7.852,46.4a.881.881,0,0,1,0,1.243.879.879,0,0,1-1.243,0L4.826,45.858ZM48.617,44.2h0l-.5.5-.738.739-.043.043-1.06,1.06-.068.068-.068.068L43.8,49.017l2.138,2.138,4.82-4.821L48.617,44.2ZM12.966,14.609h0L11.178,16.4,35.334,40.553l7.22,7.22,1.788-1.788L33.029,34.671a.879.879,0,0,1,1.243-1.243L45.585,44.742l1.789-1.789L16,11.577l-.512.513-.2.2-.009.009-.027.027L14.21,13.366,31.371,30.527a.879.879,0,1,1-1.243,1.244L12.966,14.609ZM57.043,9.651h0L36.8,29.893,38.112,31.2,58.164,11.152a.269.269,0,0,0,0-.379L57.043,9.651Zm-44.7.073-3.02,3.02.906,2.114,4.228-4.228ZM7.06,7.458,8.579,11,10.6,8.978Z" transform="translate(0 0)" fill="#17a9f3"/>
    </g>
  </g>
</svg>
