<svg id="paint-roller" xmlns="http://www.w3.org/2000/svg" xmlns:xlink="http://www.w3.org/1999/xlink" width="60" height="60" viewBox="0 0 60 60">
  <defs>
    <clipPath id="clip-path">
      <rect id="Mask" width="60" height="60" fill="rgba(247,247,247,0.01)"/>
    </clipPath>
  </defs>
  <rect id="Mask-2" data-name="Mask" width="60" height="60" fill="rgba(247,247,247,0.01)"/>
  <g id="paint-roller-2" data-name="paint-roller" clip-path="url(#clip-path)">
    <g id="paint-roller-3" data-name="paint-roller" transform="translate(5)">
      <path id="Shape" d="M24.834,59.883a6.527,6.527,0,0,1-4.827-2.146,6.637,6.637,0,0,1-1.681-5.1L19.931,36.4a2.24,2.24,0,0,1-1.921-2.216V32.971a2.232,2.232,0,0,1,2.221-2.238h3.9V29.193a2.026,2.026,0,0,1,1.429-1.931l23.346-7.007a1.781,1.781,0,0,0,1.256-1.7V9.608a.86.86,0,0,0-.856-.862H46.484v4.087a2.9,2.9,0,0,1-2.881,2.9H27.112a.877.877,0,0,1,0-1.754H43.6a1.146,1.146,0,0,0,1.14-1.149V2.9A1.146,1.146,0,0,0,43.6,1.754H27.69V4.676a3.54,3.54,0,0,1-5.351,3.075v4.411a3.6,3.6,0,0,1-.5,1.819H23.05a.877.877,0,0,1,0,1.754h-3.3V25.77a3.457,3.457,0,1,1-6.915,0V21.554a3.43,3.43,0,0,1-1.716.462,3.475,3.475,0,0,1-3.458-3.484v-2.8H6.4a2.9,2.9,0,0,1-2.882-2.9V8.745H.87a.877.877,0,0,1,0-1.754H3.519V2.9A2.9,2.9,0,0,1,6.4,0H43.6a2.9,2.9,0,0,1,2.881,2.9V6.991h2.821a2.569,2.569,0,0,1,1.835.767A2.609,2.609,0,0,1,51.9,9.608v8.951a3.544,3.544,0,0,1-2.5,3.379L26.057,28.943a.263.263,0,0,0-.184.25v1.539H29.93a2.233,2.233,0,0,1,2.222,2.238v1.209a2.233,2.233,0,0,1-2.222,2.238h-.192l.635,6.422a.876.876,0,0,1-.779.959c-.039,0-.067,0-.09,0a.869.869,0,0,1-.863-.79l-.653-6.6H21.679l-1.622,16.4a4.86,4.86,0,0,0,1.232,3.738,4.771,4.771,0,0,0,7.087,0,4.863,4.863,0,0,0,1.233-3.739l-.564-5.705a.877.877,0,0,1,.78-.96c.03,0,.062,0,.087,0a.871.871,0,0,1,.865.791l.564,5.705a6.626,6.626,0,0,1-1.679,5.094A6.533,6.533,0,0,1,24.834,59.883Zm-4.6-27.4a.489.489,0,0,0-.481.484v1.209a.488.488,0,0,0,.481.483h9.7a.488.488,0,0,0,.481-.483V32.971a.489.489,0,0,0-.481-.484ZM14.577,15.736V25.77a1.717,1.717,0,1,0,3.433,0V15.736Zm-5.174,0v2.8a1.717,1.717,0,1,0,3.433,0v-2.8ZM6.4,1.754A1.146,1.146,0,0,0,5.26,2.9v9.929A1.146,1.146,0,0,0,6.4,13.982H18.792A1.814,1.814,0,0,0,20.6,12.163V4.676a.871.871,0,1,1,1.741,0,1.805,1.805,0,1,0,3.611,0V1.754Z" transform="translate(0.049)" fill="#17a9f3"/>
      <path id="Shape-2" data-name="Shape" d="M2.92,5.883A2.942,2.942,0,0,1,2.92,0a2.942,2.942,0,0,1,0,5.883Zm0-4.129A1.187,1.187,0,1,0,4.1,2.941,1.184,1.184,0,0,0,2.92,1.754Z" transform="translate(21.964 50.04)" fill="#17a9f3"/>
    </g>
  </g>
</svg>
