<svg id="paint-roller_copy_3" data-name="paint-roller copy 3" xmlns="http://www.w3.org/2000/svg" xmlns:xlink="http://www.w3.org/1999/xlink" width="60" height="60" viewBox="0 0 60 60">
  <defs>
    <clipPath id="clip-path">
      <rect id="Mask" width="60" height="60" fill="rgba(247,247,247,0.01)"/>
    </clipPath>
  </defs>
  <rect id="Mask-2" data-name="Mask" width="60" height="60" fill="rgba(247,247,247,0.01)"/>
  <g id="paint-roller_copy_3-2" data-name="paint-roller copy 3" clip-path="url(#clip-path)">
    <g id="tablet" transform="translate(0 6)">
      <path id="Path" d="M.707.017A.87.87,0,0,0,.879,1.742a.877.877,0,0,0,.861-.7A.876.876,0,0,0,.707.017Z" transform="translate(3.134 31.366)" fill="#17a9f3"/>
      <path id="Path-2" data-name="Path" d="M.879,0A.875.875,0,0,0,0,.871V3.157a.879.879,0,0,0,1.758,0V.871A.875.875,0,0,0,.879,0Z" transform="translate(3.134 26.097)" fill="#17a9f3"/>
      <path id="Shape" d="M2.317,4.592A2.309,2.309,0,0,1,0,2.3a2.317,2.317,0,0,1,4.634,0A2.309,2.309,0,0,1,2.317,4.592Zm0-2.85a.554.554,0,1,0,.56.554A.557.557,0,0,0,2.317,1.742Z" transform="translate(41.541 27.985)" fill="#17a9f3"/>
      <path id="Shape-2" data-name="Shape" d="M22.1,48.929H5.438A5.419,5.419,0,0,1,0,43.541V16.951a5.419,5.419,0,0,1,5.438-5.388H42.872a5.41,5.41,0,0,1,1.292.156l.11-.109L44.893,11l.22-.218.555-.55.012-.011,1.105-1.1,3.934-3.9.176-.175,2.142-2.123.2-.2L55.16.822a2.858,2.858,0,0,1,4.01,0,2.793,2.793,0,0,1,0,3.974L48.161,15.7a5.2,5.2,0,0,1,.148,1.247V28.513a.879.879,0,0,1-1.758,0V17.3l-5.42,5.369V43.542a1.842,1.842,0,0,1-1.849,1.832H8.022a1.843,1.843,0,0,1-1.85-1.832V16.951a1.843,1.843,0,0,1,1.85-1.832H39.283a1.84,1.84,0,0,1,1.091.355l.929-.92.029-.03,1.231-1.22H5.438a3.668,3.668,0,0,0-3.68,3.647v26.59a3.668,3.668,0,0,0,3.68,3.647H22.1a.871.871,0,1,1,0,1.742ZM8.022,16.86a.092.092,0,0,0-.091.091v26.59a.092.092,0,0,0,.091.091H39.283a.092.092,0,0,0,.091-.091V24.41l-2.985,2.958a.887.887,0,0,1-.3.194l-3.127,1.223-.009,0-.008,0c-.066.024-.128.043-.2.065l-.022.007-.022.006-.01,0v9.649a1.431,1.431,0,0,1-1.436,1.423H20.921a1.431,1.431,0,0,1-1.435-1.423V34.708a7.037,7.037,0,1,1,7.921-7.849h3.517l0-.01.017-.045.008-.023.008-.022,0-.014.009-.023,0-.005,1.206-3.028a1.034,1.034,0,0,1,.136-.23l.006-.007.013-.014a.507.507,0,0,1,.041-.045l.085-.085.01-.009.131-.13.009-.008.072-.072.1-.095.651-.644.01-.011.913-.9.211-.209,4.41-4.37ZM27.407,28.6a7.032,7.032,0,0,1-2.027,4.1,7.149,7.149,0,0,1-4.136,2.008V38.2h9.689V28.6Zm-6.163,0V32.95A5.312,5.312,0,0,0,25.631,28.6Zm-.879-6.163a5.288,5.288,0,0,0-.878,10.511V28.283a1.431,1.431,0,0,1,1.435-1.423h4.71A5.308,5.308,0,0,0,20.364,22.439ZM50.548,7.855,39.654,18.65l-.337.333L33.751,24.5l-.994,2.495,2.518-.985,16.8-16.644-1.525-1.51Zm2.614-2.59-.923.914-.036.036-.413.409,1.525,1.51.959-.951.411-.408-1.524-1.51Zm4-3.524a1.074,1.074,0,0,0-.762.313l-2,1.98L55.93,5.543l2-1.98a1.062,1.062,0,0,0,0-1.51A1.076,1.076,0,0,0,57.166,1.741Z" transform="translate(0 0.035)" fill="#17a9f3"/>
      <path id="Path-3" data-name="Path" d="M22.1,0a.875.875,0,0,0-.879.871V11.836a3.667,3.667,0,0,1-3.68,3.646H.879a.871.871,0,1,0,0,1.742H17.545a5.419,5.419,0,0,0,5.438-5.388V.871A.875.875,0,0,0,22.1,0Z" transform="translate(25.327 31.741)" fill="#17a9f3"/>
    </g>
  </g>
</svg>
